<svg width="14" height="13" viewBox="0 0 14 13" fill="none" xmlns="http://www.w3.org/2000/svg">
<path fill-rule="evenodd" clip-rule="evenodd" d="M2.10647 5.73842C2.10647 3.40928 3.99461 1.52115 6.32375 1.52115C8.65288 1.52115 10.541 3.40928 10.541 5.73842C10.541 8.06756 8.65288 9.95569 6.32375 9.95569C3.99461 9.95569 2.10647 8.06756 2.10647 5.73842ZM6.32375 0.351196C3.34847 0.351196 0.936523 2.76314 0.936523 5.73842C0.936523 8.7137 3.34847 11.1256 6.32375 11.1256C7.73803 11.1256 9.02502 10.5807 9.98617 9.68925L12.4644 12.1676C12.6929 12.396 13.0633 12.396 13.2917 12.1676C13.5202 11.9391 13.5202 11.5688 13.2917 11.3403L10.7548 8.80329C11.3577 7.93326 11.711 6.8771 11.711 5.73842C11.711 2.76314 9.29903 0.351196 6.32375 0.351196Z" fill="#55433C" fill-opacity="0.8"/>
</svg>
